# File created by Blade
# Date/Time:  Tue Jan 27 17:21:46 2015
#---------------------------------------------------------
:version 1.10
:name HOM
:units
  mass 1.0
  length 1.000000
  angle deg
:documentation
     Acclaim Skeleton File
:root
   axis xyz
   order TX TY TZ RX RY RZ
   position 0.000000 0.000000 0.000000
   orientation 0 0 0
:bonedata
   begin
      id 1
      name Spine_dum
      direction 0.000000 1.000000 0.000000
      length 7.539951
      axis 0.0 0.0 0.0 xyz
   end
   begin
      id 2
      name LeftUpLeg_dum
      direction 1.000000 0.000000 0.000000
      length 3.345476
      axis 0.0 0.0 0.0 xyz
   end
   begin
      id 3
      name RightUpLeg_dum
      direction -1.000000 0.000000 0.000000
      length 3.345476
      axis 0.0 0.0 0.0 xyz
   end
   begin
      id 4
      name Spine
      direction 0.000000 1.000000 0.000000
      length 0.000000
      axis 0.0 0.0 0.0 xyz
      dof rx ry rz
   end
   begin
      id 5
      name Spine_dum1
      direction 0.000000 1.000000 0.000000
      length 15.093809
      axis 0.0 0.0 0.0 xyz
   end
   begin
      id 6
      name Spine_dum2
      direction 0.000000 1.000000 0.000000
      length 9.738928
      axis 0.0 0.0 0.0 xyz
   end
   begin
      id 7
      name Spine_dum3
      direction 0.000000 1.000000 0.000000
      length 9.738928
      axis 0.0 0.0 0.0 xyz
   end
   begin
      id 8
      name Head
      direction 0.000000 1.000000 0.000000
      length 4.527550
      axis 0.0 0.0 0.0 xyz
      dof rx ry rz
   end
   begin
      id 9
      name LeftShoulder
      direction 1.000000 0.000000 0.000000
      length 7.084015
      axis 0.0 0.0 -90.0 xyz
      dof rx ry rz
   end
   begin
      id 10
      name LeftArm
      direction 1.000000 0.000000 0.000000
      length 10.259319
      axis 0.0 0.0 -90.0 xyz
      dof rx ry rz
   end
   begin
      id 11
      name LeftForeArm
      direction 1.000000 0.000000 0.000000
      length 9.896984
      axis 0.0 0.0 -90.0 xyz
      dof ry rz rx
   end
   begin
      id 12
      name LeftHand
      direction 0.000000 0.000000 0.000000
      length 0.000000
      axis 0.0 0.0 -90.0 xyz
      dof rx ry rz
   end
   begin
      id 13
      name LeftHand_dum1
      direction 0.000000 0.000000 0.000000
      length 0.000000
      axis 0.0 0.0 -90.0 xyz
   end
   begin
      id 14
      name LeftHand_dum2
      direction 1.000000 0.000000 0.000000
      length 3.937000
      axis 0.0 0.0 -90.0 xyz
   end
   begin
      id 15
      name LeftHandThumb1
      direction 0.000000 0.000000 1.000000
      length 3.937000
      axis 0.0 0.0 -90.0 xyz
      dof rx rz ry
   end
   begin
      id 16
      name RightShoulder
      direction -1.000000 0.000000 0.000000
      length 7.084015
      axis 0.0 0.0 90.0 xyz
      dof rx ry rz
   end
   begin
      id 17
      name RightArm
      direction -1.000000 0.000000 0.000000
      length 10.259319
      axis 0.0 0.0 90.0 xyz
      dof rx ry rz
   end
   begin
      id 18
      name RightForeArm
      direction -1.000000 0.000000 0.000000
      length 9.896984
      axis 0.0 0.0 90.0 xyz
      dof ry rz rx
   end
   begin
      id 19
      name RightHand
      direction 0.000000 0.000000 0.000000
      length 0.000000
      axis 0.0 0.0 90.0 xyz
      dof rx ry rz
   end
   begin
      id 20
      name RightHand_dum1
      direction 0.000000 0.000000 0.000000
      length 0.000000
      axis 0.0 0.0 90.0 xyz
   end
   begin
      id 21
      name RightHand_dum2
      direction -1.000000 0.000000 0.000000
      length 3.937000
      axis 0.0 0.0 90.0 xyz
   end
   begin
      id 22
      name RightHandThumb1
      direction 0.000000 0.000000 1.000000
      length 3.937000
      axis 0.0 0.0 90.0 xyz
      dof rx rz ry
   end
   begin
      id 23
      name LeftUpLeg
      direction 0.000000 -1.000000 0.000000
      length 19.114733
      axis 0.0 0.0 0.0 xyz
      dof rx ry rz
   end
   begin
      id 24
      name LeftLeg
      direction 0.000000 -1.000000 0.000000
      length 16.045604
      axis 0.0 0.0 0.0 xyz
      dof rx ry rz
   end
   begin
      id 25
      name LeftFoot
      direction 0.000000 -0.258819 0.965926
      length 5.543155
      axis 15.0 0.0 0.0 xyz
      dof rx ry rz
   end
   begin
      id 26
      name LeftToeBase
      direction 0.000000 0.000000 1.000000
      length 2.952750
      axis 0.0 0.0 0.0 xyz
      dof rx ry rz
   end
   begin
      id 27
      name RightUpLeg
      direction 0.000000 -1.000000 0.000000
      length 19.114733
      axis 0.0 0.0 0.0 xyz
      dof rx ry rz
   end
   begin
      id 28
      name RightLeg
      direction 0.000000 -1.000000 0.000000
      length 16.045604
      axis 0.0 0.0 0.0 xyz
      dof rx ry rz
   end
   begin
      id 29
      name RightFoot
      direction 0.000000 -0.258819 0.965926
      length 5.543155
      axis 15.0 0.0 0.0 xyz
      dof rx ry rz
   end
   begin
      id 30
      name RightToeBase
      direction 0.000000 0.000000 1.000000
      length 2.952750
      axis 0.0 0.0 0.0 xyz
      dof rx ry rz
   end
:hierarchy
   begin
      root Spine_dum LeftUpLeg_dum RightUpLeg_dum
      Spine_dum Spine
      LeftUpLeg_dum LeftUpLeg
      RightUpLeg_dum RightUpLeg
      Spine Spine_dum1 Spine_dum2 Spine_dum3
      Spine_dum1 Head
      Spine_dum2 LeftShoulder
      Spine_dum3 RightShoulder
      LeftShoulder LeftArm
      LeftArm LeftForeArm
      LeftForeArm LeftHand
      LeftHand LeftHand_dum1 LeftHand_dum2
      LeftHand_dum1 LeftHandThumb1
      RightShoulder RightArm
      RightArm RightForeArm
      RightForeArm RightHand
      RightHand RightHand_dum1 RightHand_dum2
      RightHand_dum1 RightHandThumb1
      LeftUpLeg LeftLeg
      LeftLeg LeftFoot
      LeftFoot LeftToeBase
      RightUpLeg RightLeg
      RightLeg RightFoot
      RightFoot RightToeBase
   end

# File created by Blade
# Date/Time:  Tue Jan 27 17:21:37 2015
# Frame Rate: 120.000 fps
#------------------------------------------------------
:FULLY-SPECIFIED
:DEGREES
288
root -4.216285 36.572093 0.449028 3.737790 -56.253257 -4.169350
Spine -0.634506 20.409246 -2.130141
Head 17.263422 8.359207 0.953309
LeftShoulder -9.856722 -7.482814 11.496781
LeftArm -25.421763 -30.632306 -25.354547
LeftForeArm 9.459990 -0.000000 70.046380
LeftHand -17.755251 -0.000000 42.009396
LeftHandThumb1 -26.253704 0.000000 33.147579
RightShoulder -5.017096 -18.998085 2.013000
RightArm 35.190722 -33.170071 45.745752
RightForeArm 171.975970 -0.000000 32.635795
RightHand 0.776356 -0.000000 -2.526530
RightHandThumb1 -24.326973 -0.000000 -32.862282
LeftUpLeg -40.695022 -5.194238 9.301372
LeftLeg 102.500915 -0.000000 -0.000000
LeftFoot -8.994961 -2.716771 -21.023263
LeftToeBase 12.268253 -0.000000 -0.000000
RightUpLeg -2.824109 -0.528182 7.920507
RightLeg 16.953407 -0.000000 -0.000000
RightFoot -16.805475 5.928183 -7.039117
RightToeBase 1.067770 -0.000000 -0.000000
289
root -4.220033 36.569593 0.460096 3.741718 -56.227778 -4.201910
Spine -0.639008 20.410855 -2.081303
Head 17.282287 8.421367 1.045818
LeftShoulder -9.864254 -7.464158 11.457222
LeftArm -25.459733 -30.680121 -25.286096
LeftForeArm 9.452430 -0.000000 70.047671
LeftHand -17.833338 -0.000000 42.262149
LeftHandThumb1 -26.253704 0.000000 33.147579
RightShoulder -5.055051 -19.026124 2.040144
RightArm 35.136141 -33.133182 45.766665
RightForeArm 171.941448 -0.000000 32.526374
RightHand 0.778903 0.000000 -2.580629
RightHandThumb1 -24.326973 -0.000000 -32.862282
LeftUpLeg -40.612768 -5.277121 9.309614
LeftLeg 102.407876 -0.000000 -0.000000
LeftFoot -9.061443 -2.604118 -20.971125
LeftToeBase 12.236849 -0.000000 -0.000000
RightUpLeg -2.801743 -0.543052 7.924279
RightLeg 16.986407 -0.000000 -0.000000
RightFoot -16.832957 5.941423 -7.033284
RightToeBase 1.057871 -0.000000 -0.000000
290
root -4.223358 36.565854 0.470690 3.734486 -56.196404 -4.219746
Spine -0.641134 20.394255 -2.045279
Head 17.282733 8.535021 1.161672
LeftShoulder -9.878063 -7.473464 11.444577
LeftArm -25.531507 -30.741506 -25.220129
LeftForeArm 9.399197 -0.000000 70.058577
LeftHand -17.680749 -0.000000 42.017393
LeftHandThumb1 -26.253704 0.000000 33.147579
RightShoulder -5.059279 -19.026626 2.041356
RightArm 35.026233 -33.102604 45.850440
RightForeArm 171.923819 0.000000 32.406685
RightHand 0.769277 -0.000000 -2.562085
RightHandThumb1 -24.326973 -0.000000 -32.862282
LeftUpLeg -40.537966 -5.359823 9.310026
LeftLeg 102.315972 -0.000000 -0.000000
LeftFoot -9.082195 -2.522681 -20.994952
LeftToeBase 12.341426 -0.000000 -0.000000
RightUpLeg -2.778582 -0.547319 7.926510
RightLeg 17.009378 -0.000000 -0.000000
RightFoot -16.879005 5.922165 -7.032172
RightToeBase 1.088978 -0.000000 -0.000000
291
root -4.227364 36.561882 0.479903 3.761059 -56.183518 -4.263540
Spine -0.663188 20.408471 -2.003744
Head 17.280749 8.645423 1.275074
LeftShoulder -9.883390 -7.455705 11.441492
LeftArm -25.572400 -30.839022 -25.190898
LeftForeArm 9.479108 -0.000000 70.066131
LeftHand -17.723477 -0.000000 42.036231
LeftHandThumb1 -26.253704 0.000000 33.147579
RightShoulder -5.082165 -19.038589 2.048891
RightArm 34.928260 -33.068656 45.923136
RightForeArm 171.894728 -0.000000 32.290306
RightHand 0.779824 -0.000000 -2.612656
RightHandThumb1 -24.326973 -0.000000 -32.862282
LeftUpLeg -40.460758 -5.411581 9.323953
LeftLeg 102.213798 -0.000000 -0.000000
LeftFoot -9.122562 -2.485676 -21.080022
LeftToeBase 12.381571 -0.000000 -0.000000
RightUpLeg -2.756969 -0.521595 7.948416
RightLeg 17.013906 -0.000000 -0.000000
RightFoot -16.897797 5.874499 -7.047898
RightToeBase 1.007179 -0.000000 -0.000000
